:SAMPLES-PER-SECOND 30
:FULLY-SPECIFIED
:DEGREES
183
root  -28.4154 38.7313 9.79266 -159.348 -9.42901 177.798
RightUpLeg  -41.923 -4.17986 -3.88448
RightLeg  21.479 3.82698 1.44075
RightFoot  1.11157 -0.0291047 0.340125
RightToes  -1.74624e-010 0 -3.6325e-017
Spine  40.9667 -3.47241 4.52953
Spine1  18.2628 -2.07049 -0.003501
HEad  9.93337 -7.60021 -4.4868
LeftShoulder1  0.65021 1.60687 -28.1591
LeftArm  -2.44128 -13.9539 -51.7273
LeftForeArm  21.4457 -40.4165 -8.15326
LeftHand  -0.0989652 3.74451 5.91156
RightShoulder  -0.457518 -4.79385 28.5428
RightArm  2.90407 14.4944 49.95
RightForeArm  4.56272 37.668 8.38283
RightHand  -0.672222 9.2151 -5.71398
LeftUpLeg  -41.2432 3.02227 0.862336
LeftLeg  21.1401 1.44717 0.95012
LeftFoot  0.895588 -0.168434 1.52075
LeftToes  2.27646e-009 -8.13696e-011 -1.44715e-011
184
root  -28.4038 38.5946 9.5801 -160.612 -8.63546 177.9
RightUpLeg  -41.5819 -3.271 -4.03544
RightLeg  23.8758 3.59771 1.5275
RightFoot  -0.209495 -0.0110089 0.0968489
RightToes  -1.74624e-010 0 -3.6325e-017
Spine  39.4223 -2.81735 3.94969
Spine1  18.3186 -1.59777 0.0633945
HEad  7.46866 -7.567 -4.79829
LeftShoulder1  0.648788 1.63971 -28.6908
LeftArm  -1.80999 -13.9796 -51.5441
LeftForeArm  21.4551 -39.2428 -7.79269
LeftHand  -0.103284 3.5358 5.57132
RightShoulder  -0.508232 -4.93802 28.5833
RightArm  3.7403 14.5724 50.049
RightForeArm  4.8173 36.0285 7.8837
RightHand  -0.58262 8.97614 -5.08697
LeftUpLeg  -40.7345 3.55745 1.02793
LeftLeg  23.7471 1.70609 1.16303
LeftFoot  -0.81933 -0.115534 1.30601
LeftToes  2.27646e-009 -8.13696e-011 -1.44715e-011
185
root  -28.4918 38.485 9.34222 -162.01 -8.26943 177.755
RightUpLeg  -40.8629 -3.62602 -4.13652
RightLeg  26.1672 4.17502 2.00625
RightFoot  -1.50493 0.00676239 -0.195778
RightToes  -1.74624e-010 0 -3.6325e-017
Spine  37.5134 -2.75845 3.96345
Spine1  18.1979 -1.5463 -0.397989
HEad  3.87029 -6.96673 -4.96339
LeftShoulder1  0.716915 1.44084 -28.65
LeftArm  -1.05703 -13.3714 -51.14
LeftForeArm  21.9942 -38.0213 -7.39891
LeftHand  -0.0983243 3.79267 6.10996
RightShoulder  -0.559671 -5.08064 28.703
RightArm  5.03048 14.7262 50.3962
RightForeArm  4.50937 34.0691 7.3506
RightHand  -0.579531 9.2998 -4.96284
LeftUpLeg  -39.7423 3.07963 1.13495
LeftLeg  25.8553 2.48125 1.64817
LeftFoot  -2.34432 -0.0710231 1.08788
LeftToes  2.27646e-009 -8.13696e-011 -1.44715e-011
186
root  -28.5517 38.3878 9.05439 -163.227 -7.59386 177.399
RightUpLeg  -40.1433 -3.60291 -4.56639
RightLeg  28.2299 4.5751 2.42979
RightFoot  -2.86321 0.00404072 -0.317308
RightToes  -1.74624e-010 0 -3.6325e-017
Spine  34.9944 -2.45518 3.3971
Spine1  18.02 -1.42237 -0.810234
HEad  -0.343684 -6.03996 -4.8698
LeftShoulder1  0.648749 1.66377 -29.1432
LeftArm  -0.0490847 -12.6018 -50.4675
LeftForeArm  22.8545 -36.5407 -6.92723
LeftHand  -0.119688 3.0679 5.3602
RightShoulder  -0.544507 -5.02497 28.974
RightArm  5.53504 14.4665 50.9294
RightForeArm  5.24106 32.3205 6.84158
RightHand  -0.586812 8.75847 -5.18529
LeftUpLeg  -38.5873 3.15834 0.827285
LeftLeg  27.5049 2.90321 1.98398
LeftFoot  -3.62325 -0.0511545 1.08005
LeftToes  2.27646e-009 -8.13696e-011 -1.44715e-011
187
root  -28.623 38.3741 8.69914 -164.494 -6.76837 176.825
RightUpLeg  -38.8471 -3.26316 -5.36016
RightLeg  29.5437 4.84024 2.7282
RightFoot  -4.11357 -0.00454204 -0.366924
RightToes  -1.74624e-010 0 -3.6325e-017
Spine  32.6031 -2.03003 2.59838
Spine1  17.2981 -1.22333 -1.07515
HEad  -4.79397 -5.10908 -5.31437
LeftShoulder1  0.696676 1.53753 -29.3358
LeftArm  0.932408 -11.361 -49.836
LeftForeArm  22.585 -34.6743 -6.44097
LeftHand  -0.0878737 3.92445 5.56317
RightShoulder  -0.582304 -5.1247 29.1466
RightArm  6.67072 14.1912 51.0332
RightForeArm  5.43977 30.796 6.44006
RightHand  -0.542391 9.05971 -4.73747
LeftUpLeg  -36.7583 3.08234 0.352123
LeftLeg  28.3132 3.46689 2.36716
LeftFoot  -4.69561 -0.0252512 0.923356
LeftToes  2.27646e-009 -8.13696e-011 -1.44715e-011
188
root  -28.6843 38.4853 8.28068 -167.118 -6.69525 176.911
RightUpLeg  -35.3046 -2.80439 -5.53685
RightLeg  29.6937 4.76026 2.6968
RightFoot  -5.10383 -0.0171881 -0.325078
RightToes  -1.74624e-010 0 -3.6325e-017
Spine  31.5312 -1.88793 2.33202
Spine1  16.1257 -1.25507 -0.805391
HEad  -9.86096 -3.90936 -6.44103
LeftShoulder1  0.674315 1.64806 -30.2421
LeftArm  2.30679 -10.3183 -48.898
LeftForeArm  22.9575 -32.3119 -5.81714
LeftHand  -0.0699947 4.15351 4.83939
RightShoulder  -0.569635 -5.08457 29.2321
RightArm  7.53507 13.5942 50.9931
RightForeArm  5.24565 29.5068 6.13206
RightHand  -0.532554 9.50685 -4.53352
LeftUpLeg  -33.1543 2.98281 0.601331
LeftLeg  28.4355 3.7535 2.54562
LeftFoot  -5.69729 -0.00548233 0.806354
LeftToes  2.27646e-009 -8.13696e-011 -1.44715e-011
189
root  -28.7563 38.6263 7.78348 -169.273 -6.55521 176.951
RightUpLeg  -31.9243 -2.25354 -5.6958
RightLeg  29.4136 4.56183 2.54758
RightFoot  -5.98243 -0.0234253 -0.360928
RightToes  -1.74624e-010 0 -3.6325e-017
Spine  29.5122 -1.76803 2.1572
Spine1  15.2215 -1.19962 -0.833885
HEad  -14.6236 -2.55116 -6.86181
LeftShoulder1  0.679594 1.66857 -30.9412
LeftArm  4.26483 -9.19388 -47.9077
LeftForeArm  21.0852 -29.5175 -5.24868
LeftHand  -0.0878197 3.81711 5.34934
RightShoulder  -0.655018 -5.29362 29.8635
RightArm  9.54224 13.0799 50.3629
RightForeArm  4.48922 28.7154 5.98124
RightHand  -0.518526 8.941 -4.58397
LeftUpLeg  -29.6313 2.99568 0.782487
LeftLeg  27.992 3.91213 2.59688
LeftFoot  -6.58293 0.0135818 0.6309
LeftToes  2.27646e-009 -8.13696e-011 -1.44715e-011
190
root  -28.8087 38.8492 7.19634 -171.673 -6.00238 177.033
RightUpLeg  -27.7441 -0.621546 -5.91001
RightLeg  28.1918 3.9358 2.05494
RightFoot  -6.67826 -0.0434237 -0.0467441
RightToes  -1.74624e-010 0 -3.6325e-017
Spine  27.6292 -1.4821 1.77294
Spine1  14.2116 -0.903542 -1.01894
HEad  -19.8091 -1.03396 -7.66924
LeftShoulder1  0.659264 1.747 -31.457
LeftArm  6.93061 -7.76388 -46.7823
LeftForeArm  18.8239 -27.0346 -4.80435
LeftHand  -0.049395 4.76818 5.32514
RightShoulder  -0.706536 -5.42147 30.1445
RightArm  11.7618 12.0017 49.9084
RightForeArm  4.40482 28.7187 5.98875
RightHand  -0.499902 7.69071 -4.78882
LeftUpLeg  -25.1892 3.49208 1.00642
LeftLeg  26.6183 3.99995 2.51907
LeftFoot  -7.15147 0.0208321 0.558606
LeftToes  2.27646e-009 -8.13696e-011 -1.44715e-011
191
root  -28.9016 39.0773 6.59684 -173.435 -6.00765 176.798
RightUpLeg  -24.0269 -0.00802735 -6.26769
RightLeg  26.8404 3.55308 1.7277
RightFoot  -7.25366 -0.054111 0.135151
RightToes  -1.74624e-010 0 -3.6325e-017
Spine  25.2499 -1.50356 1.47885
Spine1  12.8138 -1.01452 -1.10273
HEad  -23.9425 0.502659 -8.22432
LeftShoulder1  0.59459 1.95135 -32.2009
LeftArm  8.69211 -6.04934 -45.7208
LeftForeArm  17.6302 -24.9207 -4.39407
LeftHand  -0.0395047 4.95549 4.28192
RightShoulder  -0.658495 -5.30133 29.9061
RightArm  13.1968 11.0704 50.2622
RightForeArm  4.48008 27.1601 5.61394
RightHand  -0.508553 7.84571 -4.8194
LeftUpLeg  -21.2456 3.5183 0.84757
LeftLeg  24.7834 3.98993 2.34931
LeftFoot  -7.29515 0.00746267 0.766617
LeftToes  2.27646e-009 -8.13696e-011 -1.44715e-011
192
root  -28.9765 39.3195 5.96627 -175.14 -6.35239 176.802
RightUpLeg  -20.047 0.268781 -6.27186
RightLeg  25.0005 3.21857 1.41427
RightFoot  -7.59674 -0.0606246 0.279811
RightToes  -1.74624e-010 0 -3.6325e-017
Spine  22.6754 -1.53894 1.43865
Spine1  11.5209 -1.04591 -1.2626
HEad  -27.0479 2.13742 -8.27496
LeftShoulder1  0.573407 2.01987 -32.5618
LeftArm  10.8159 -4.55654 -44.7351
LeftForeArm  16.4651 -22.9541 -4.20317
LeftHand  -0.0168948 5.69456 3.67321
RightShoulder  -0.683262 -5.35484 30.195
RightArm  14.9788 9.8482 49.8732
RightForeArm  4.56924 26.5205 5.46211
RightHand  -0.469907 8.11609 -4.40289
LeftUpLeg  -17.1709 3.39341 0.995073
LeftLeg  22.4954 3.86292 2.0875
LeftFoot  -7.34558 0.014638 0.63604
LeftToes  2.27646e-009 -8.13696e-011 -1.44715e-011
193
root  -29.0426 39.5577 5.315 -176.674 -6.437 176.577
RightUpLeg  -16.2553 0.706644 -6.50016
RightLeg  23.1521 3.04489 1.21149
RightFoot  -7.86856 -0.0711121 0.583328
RightToes  -1.74624e-010 0 -3.6325e-017
Spine  20.0587 -1.46318 1.21851
Spine1  10.2965 -0.903491 -1.72075
HEad  -29.4814 3.73414 -8.49815
LeftShoulder1  0.481957 2.26217 -32.7129
LeftArm  10.7972 -3.02286 -44.079
LeftForeArm  17.5286 -21.2739 -4.50583
LeftHand  -0.0235715 5.46685 3.74991
RightShoulder  -0.741763 -5.50249 30.4301
RightArm  16.2684 8.64077 49.5717
RightForeArm  4.71983 26.0434 5.3451
RightHand  -0.499035 8.52638 -4.53273
LeftUpLeg  -12.9376 3.26439 0.909277
LeftLeg  19.6604 3.93511 1.89324
LeftFoot  -7.13877 0.0175655 0.563782
LeftToes  2.27646e-009 -8.13696e-011 -1.44715e-011
